REM MD5 ea6d4cb408649c8f16fa4114ad4a0bad
FILE "Carmageddon (Germany) (En,Fr,De,Es).bin" BINARY
  TRACK 01 MODE2/2352
    INDEX 01 00:00:00
  TRACK 02 AUDIO
    INDEX 00 17:25:30
    INDEX 01 17:27:30
  TRACK 03 AUDIO
    INDEX 00 21:42:21
    INDEX 01 21:44:21
  TRACK 04 AUDIO
    INDEX 00 27:30:23
    INDEX 01 27:32:23
  TRACK 05 AUDIO
    INDEX 00 33:12:71
    INDEX 01 33:14:71
  TRACK 06 AUDIO
    INDEX 00 38:56:69
    INDEX 01 38:58:69
REM LEADOUT 44:06:41
